# Blender 3.6.4
# www.blender.org
mtllib sparkle.mtl
o single_centered_triforce_piece.001
v 0.039276 0.056075 0.035021
v 0.039276 0.056075 -0.035021
v 0.039276 0.056075 -0.035021
v -0.034150 0.056259 -0.035021
v 0.039276 0.056075 -0.035021
v -0.034150 0.056259 -0.035021
v 0.002721 0.108538 -0.035021
v 0.003936 0.513959 -0.002612
v 0.002721 0.108538 0.035021
v 0.003936 0.513959 0.002612
v 0.039276 0.056075 0.002612
v 0.039276 0.056075 -0.002612
v -0.034150 0.056259 0.002612
v -0.034150 0.056259 -0.002612
v -0.082207 0.041707 -0.035021
v -0.476342 0.168426 -0.009101
v -0.082207 0.041707 0.035021
v -0.476342 0.168426 0.009101
v -0.036815 -0.003936 0.009101
v -0.036815 -0.003936 -0.009101
v -0.034150 0.056259 0.009101
v -0.034150 0.056259 0.035021
v -0.034150 0.056259 -0.035021
v -0.034150 0.056259 -0.009101
v -0.053576 -0.080046 -0.035021
v -0.279557 -0.394729 -0.009100
v -0.053577 -0.080046 0.035021
v -0.279557 -0.394729 0.009100
v -0.003239 -0.054291 0.035021
v 0.001271 -0.054291 0.009100
v 0.001271 -0.054291 -0.009100
v -0.003239 -0.054291 -0.035021
v -0.036815 -0.003936 0.009100
v -0.036815 -0.003936 0.035021
v -0.036815 -0.003936 -0.035021
v -0.036815 -0.003936 -0.009100
v 0.073703 -0.103040 -0.035021
v 0.297268 -0.398664 -0.009100
v 0.073703 -0.103040 0.035021
v 0.297268 -0.398664 0.009100
v -0.003239 -0.054291 0.009100
v -0.003239 -0.054291 0.035021
v -0.003239 -0.054291 -0.035021
v -0.003239 -0.054291 -0.009100
v 0.038783 -0.001968 0.009100
v 0.038783 -0.001968 -0.009100
v 0.066543 0.036017 -0.035021
v 0.486181 0.164490 -0.009100
v 0.066543 0.036017 0.035021
v 0.486181 0.164490 0.009100
v 0.039276 0.056075 0.035021
v 0.039276 0.056075 0.009100
v 0.039276 0.056075 -0.009100
v 0.039276 0.056075 -0.035021
v 0.038783 -0.001968 0.009100
v 0.038783 -0.001968 0.035021
v 0.038783 -0.001968 -0.035021
v 0.038783 -0.001968 -0.009100
vn 0.9970 0.0770 -0.0000
vn -0.0000 1.0000 -0.0000
vn -0.7535 -0.6575 -0.0000
vn -0.7091 -0.7052 -0.0000
vn -0.8172 0.5764 -0.0000
vn -0.0000 -0.0000 1.0000
vn -0.0000 -0.0000 -1.0000
vn -0.3651 -0.9310 -0.0000
vn 0.7714 -0.6363 -0.0000
vn 0.8205 0.5717 -0.0000
vn -0.9966 0.0829 -0.0000
vn 0.3661 0.9306 -0.0000
vn 0.1739 0.6854 -0.7071
vn -0.2898 0.9571 -0.0000
vn 0.2459 0.9693 -0.0000
vn 0.5455 -0.4500 0.7071
vn 0.5455 -0.4500 -0.7071
vn -0.6007 0.3731 -0.7071
vn -0.9766 0.2151 -0.0000
vn 1.0000 -0.0000 -0.0000
vn -0.5328 -0.4649 0.7071
vn -0.5328 -0.4649 -0.7071
vn 0.8378 0.5459 -0.0000
vn 0.5926 0.8055 -0.0000
vn -0.1667 0.6872 0.7071
vn 0.2466 -0.6627 -0.7071
vn 0.8074 -0.5900 -0.0000
vn -0.2358 0.9718 -0.0000
vn 0.1131 0.0788 0.9904
vn 0.3487 -0.9372 -0.0000
vn -0.2582 -0.6583 0.7071
vn -0.7047 0.0586 0.7071
vn 0.7050 0.0544 -0.7071
vn 0.5924 0.3860 0.7071
vn 0.9452 0.3266 -0.0000
vn -0.1127 0.0795 -0.9904
vn -1.0000 -0.0000 -0.0000
vn -0.0958 -0.0953 -0.9908
vn 0.1739 0.6854 0.7071
vn 0.4541 -0.8875 0.0790
vn 0.4541 -0.8875 -0.0790
vn -0.6007 0.3731 0.7071
vn -0.8495 0.5276 -0.0000
vn -0.5352 -0.8447 -0.0000
vn 0.2082 0.0719 -0.9754
vn -0.1667 0.6872 -0.7071
vn 0.2466 -0.6627 0.7071
vt 0.888889 1.000000
vt 0.888889 0.814963
vt 1.000000 0.768647
vt 0.111111 0.814963
vt 0.111111 0.685037
vt 0.666667 0.814963
vt 0.555556 0.685037
vt 0.666667 0.685037
vt 0.111436 0.250000
vt 0.279891 0.237150
vt 0.888889 0.731353
vt 1.000000 0.731353
vt 0.111111 0.768647
vt 0.111111 1.000000
vt 0.097767 1.000000
vt 0.319282 0.130000
vt 0.298219 0.222856
vt 0.180718 0.370000
vt 0.555556 0.500000
vt 0.357134 0.500000
vt 0.222222 0.500000
vt 0.666667 0.814966
vt 0.555556 0.685034
vt 0.555556 0.814966
vt 0.333333 0.685037
vt 0.444444 0.814963
vt 0.333333 0.814963
vt 0.888889 0.500000
vt 0.671147 0.500000
vt 0.180718 0.370000
vt 0.111111 0.500000
vt 0.111111 0.731353
vt 0.000000 0.731353
vt 0.000000 0.768647
vt 0.666667 0.500000
vt 0.777778 0.685034
vt 0.548457 0.500000
vt 0.666667 0.685034
vt 0.388564 0.250000
vt 0.777778 0.814966
vt 0.777778 0.768647
vt 0.180718 0.130000
vt 0.126739 0.196814
vt 0.042154 0.130000
vt 0.444444 0.685037
vt 0.222222 0.685037
vt 0.333333 0.685037
vt 0.222222 0.685034
vt 0.222222 0.814966
vt 0.457846 0.130000
vt 0.661336 0.500000
vt 0.777778 0.500000
vt 0.777778 0.685037
vt 0.666667 0.685037
vt 0.666667 0.814963
vt 0.777778 0.814963
vt 0.888889 0.685037
vt 0.808956 0.500000
vt 0.894149 1.000000
vt 1.000000 0.814963
vt 1.000000 0.500000
vt 0.252010 0.361841
vt 0.902225 1.000000
vt 0.888889 0.768647
vt 0.000000 0.685037
vt 0.000000 0.814963
vt 0.555556 0.814963
vt 0.111111 0.814966
vt 0.319282 0.370000
vt 0.313786 0.329002
vt 0.777778 0.500000
vt 0.666667 0.685034
vt 0.000000 0.500000
vt 0.097767 0.500000
vt 0.111111 0.685034
vt 0.777778 0.731353
vt 0.333333 0.814963
vt 1.000000 0.685037
vt 0.250000 0.490000
s 0
usemtl Triforce.001
f 51/1/1 52/2/1 10/3/1
f 55/4/2 45/4/2 46/5/2
f 40/6/3 44/7/3 38/8/3
f 19/9/4 34/9/4 17/10/4
f 10/3/1 12/11/1 8/12/1
f 13/13/5 22/14/5 9/15/5
f 29/16/6 39/17/6 56/18/6
f 43/19/7 25/20/7 35/21/7
f 18/22/8 20/23/8 19/24/8
f 26/25/9 30/26/9 28/27/9
f 12/28/10 53/28/10 7/29/10
f 45/30/2 55/30/2 56/18/2
f 23/31/11 14/32/11 8/33/11
f 10/34/11 14/32/11 13/13/11
f 36/21/12 20/21/12 16/35/12
f 24/36/13 15/37/13 16/38/13
f 21/39/14 17/10/14 22/39/14
f 16/38/15 21/40/15 13/41/15
f 30/42/16 27/43/16 28/44/16
f 25/20/17 31/45/17 26/25/17
f 36/46/18 25/20/18 26/47/18
f 33/9/19 27/43/19 34/9/19
f 20/48/20 33/49/20 19/49/20
f 39/17/21 41/16/21 40/50/21
f 44/7/22 37/51/22 38/8/22
f 57/52/23 46/53/23 38/54/23
f 40/55/23 46/53/23 45/56/23
f 53/57/24 47/58/24 54/28/24
f 52/2/25 49/59/25 50/60/25
f 58/52/26 47/58/26 48/61/26
f 55/18/27 49/62/27 56/18/27
f 50/60/28 53/57/28 12/11/28
f 10/3/29 9/63/29 51/1/29
f 52/2/1 11/64/1 10/3/1
f 58/5/30 48/65/30 50/66/30
f 58/5/30 50/66/30 55/4/30
f 46/5/2 58/5/2 55/4/2
f 40/6/3 41/67/3 44/7/3
f 17/10/31 18/50/31 19/9/31
f 19/9/2 33/9/2 34/9/2
f 10/3/1 11/64/1 12/11/1
f 9/15/32 10/34/32 13/13/32
f 13/13/2 21/68/2 22/14/2
f 56/18/6 49/62/6 51/69/6
f 51/69/6 9/70/6 22/39/6
f 22/39/6 17/10/6 34/9/6
f 56/18/6 51/69/6 22/39/6
f 56/18/6 22/39/6 34/9/6
f 56/18/6 34/9/6 27/43/6
f 29/16/2 42/16/2 39/17/2
f 56/18/6 27/43/6 29/16/6
f 35/21/7 15/37/7 23/71/7
f 23/71/7 7/29/7 54/28/7
f 54/28/7 47/58/7 57/52/7
f 35/21/7 23/71/7 54/28/7
f 35/21/7 54/28/7 57/52/7
f 35/21/7 57/52/7 37/51/7
f 43/19/2 32/19/2 25/20/2
f 35/21/7 37/51/7 43/19/7
f 18/22/8 16/72/8 20/23/8
f 26/25/9 31/45/9 30/26/9
f 7/29/33 8/73/33 12/28/33
f 53/28/10 54/28/10 7/29/10
f 39/17/34 40/50/34 45/30/34
f 56/18/35 39/17/35 45/30/35
f 8/33/36 7/74/36 23/31/36
f 23/31/37 24/75/37 14/32/37
f 10/34/11 8/33/11 14/32/11
f 16/35/38 15/37/38 35/21/38
f 16/35/8 35/21/8 36/21/8
f 24/36/14 23/71/14 15/37/14
f 21/39/39 18/50/39 17/10/39
f 14/76/15 24/36/15 16/38/15
f 16/38/15 18/22/15 21/40/15
f 13/41/15 14/76/15 16/38/15
f 30/42/40 29/16/40 27/43/40
f 25/20/41 32/19/41 31/45/41
f 36/46/19 35/21/19 25/20/19
f 33/9/42 28/44/42 27/43/42
f 36/46/43 26/47/43 28/77/43
f 36/46/43 28/77/43 33/49/43
f 20/48/2 36/46/2 33/49/2
f 39/17/44 42/16/44 41/16/44
f 44/7/44 43/19/44 37/51/44
f 38/54/45 37/51/45 57/52/45
f 57/52/20 58/53/20 46/53/20
f 40/55/23 38/54/23 46/53/23
f 53/57/46 48/78/46 47/58/46
f 52/2/24 51/1/24 49/59/24
f 58/52/27 57/52/27 47/58/27
f 55/18/47 50/79/47 49/62/47
f 11/64/28 52/2/28 50/60/28
f 50/60/28 48/78/28 53/57/28
f 12/11/28 11/64/28 50/60/28
l 1 2
l 5 3
l 4 6
l 23 4
l 54 3
