# Blender 3.6.4
# www.blender.org
mtllib mountain.mtl
o Mountain
v -5.391465 -0.748800 0.007008
v -2.322638 -0.748800 0.007008
v -5.363240 -0.748800 -0.980181
v -2.337734 -0.748800 -0.500685
v -4.598995 -0.748800 -1.031190
v -3.217966 -0.748800 -0.826463
v -5.008720 -0.748800 -1.163843
v -3.466576 -0.748800 -0.751881
v -4.422830 -0.748800 -0.965103
v -3.111117 -0.748800 -0.822203
v -3.308843 -0.748800 -0.768547
v -4.050491 -0.748800 -1.062329
v -2.561218 -0.748800 -0.538159
v -5.277509 -0.748800 -1.037216
v -4.502326 -0.748800 -1.008919
v -3.168044 -0.748800 -0.835119
v -4.912581 -0.748800 -1.135359
v -3.374816 -0.748800 -0.751913
v -4.155766 -0.748800 -1.054528
v -5.100523 -0.748800 -1.147514
v -3.562895 -0.748800 -0.776939
v -4.343784 -0.748800 -0.952537
v -4.708017 -0.748800 -1.044116
v -5.365180 -0.748800 -0.953976
v -2.435444 -0.748800 -0.500572
v -5.318830 -0.748800 -0.999366
v -4.547822 -0.748800 -1.026733
v -3.193693 -0.748800 -0.833149
v -4.960922 -0.748800 -1.152188
v -3.417943 -0.748800 -0.749201
v -4.206066 -0.748800 -1.031157
v -2.800241 -0.748800 -0.653322
v -3.611174 -0.748800 -0.797097
v -4.384343 -0.748800 -0.952853
v -5.382140 -0.748800 -0.898352
v -4.761994 -0.748800 -1.063664
v -3.283362 -0.748800 -0.781680
v -3.998876 -0.748800 -1.042615
v -2.494910 -0.748800 -0.514373
v -3.707921 -0.748800 -0.848936
v -3.140812 -0.748800 -0.831445
v -3.338749 -0.748800 -0.758566
v -4.103597 -0.748800 -1.065225
v -5.055028 -0.748800 -1.163908
v -3.514694 -0.748800 -0.761616
v -4.300205 -0.748800 -0.971894
v -2.965156 -0.748800 -0.753606
v -4.653358 -0.748800 -1.032825
v -3.240527 -0.748800 -0.814629
v -2.384548 -0.748800 -0.495801
v -5.391465 -0.639820 0.007008
v -2.322638 -0.639820 0.007008
v -5.363240 -0.639820 -0.980181
v -2.337734 -0.639820 -0.500685
v -4.598995 -0.639820 -1.031190
v -3.217966 -0.639820 -0.826463
v -5.008720 -0.639820 -1.163843
v -3.466576 -0.639820 -0.751881
v -4.422830 -0.639820 -0.965103
v -3.111117 -0.639820 -0.822203
v -3.308843 -0.639820 -0.768547
v -4.050491 -0.639820 -1.062329
v -2.561218 -0.639820 -0.538159
v -5.277509 -0.639820 -1.037216
v -4.502326 -0.639820 -1.008919
v -3.168044 -0.639820 -0.835119
v -4.912581 -0.639820 -1.135359
v -3.374816 -0.639820 -0.751913
v -4.155766 -0.639820 -1.054528
v -5.100523 -0.639820 -1.147514
v -3.562895 -0.639820 -0.776939
v -4.343784 -0.639820 -0.952537
v -4.708017 -0.639820 -1.044116
v -5.365180 -0.639820 -0.953976
v -2.435444 -0.639820 -0.500572
v -5.318830 -0.639820 -0.999366
v -4.547822 -0.639820 -1.026733
v -3.193693 -0.639820 -0.833149
v -4.960922 -0.639820 -1.152188
v -3.417943 -0.639820 -0.749201
v -4.206066 -0.639820 -1.031157
v -2.800241 -0.639820 -0.653322
v -3.611174 -0.639820 -0.797097
v -4.384343 -0.639820 -0.952853
v -5.382140 -0.639820 -0.898352
v -4.761994 -0.639820 -1.063664
v -3.283362 -0.639820 -0.781680
v -3.998876 -0.639820 -1.042615
v -2.494910 -0.639820 -0.514373
v -3.707921 -0.639820 -0.848936
v -3.140812 -0.639820 -0.831445
v -3.338749 -0.639820 -0.758566
v -4.103597 -0.639820 -1.065225
v -5.055028 -0.639820 -1.163908
v -3.514694 -0.639820 -0.761616
v -4.300205 -0.639820 -0.971894
v -2.965156 -0.639820 -0.753606
v -4.653358 -0.639820 -1.032825
v -3.240527 -0.639820 -0.814629
v -2.384548 -0.639820 -0.495801
vn -0.0000 1.0000 -0.0000
vn 0.4214 -0.0000 0.9069
vn 0.1814 -0.0000 0.9834
vn 0.3166 -0.0000 0.9486
vn -0.4341 -0.0000 0.9009
vn 0.2009 -0.0000 0.9796
vn -0.0544 -0.0000 0.9985
vn -0.3853 -0.0000 0.9228
vn 0.3390 -0.0000 0.9408
vn -0.0014 -0.0000 1.0000
vn -0.0078 -0.0000 1.0000
vn -0.3030 -0.0000 0.9530
vn -0.1983 -0.0000 0.9801
vn 0.3966 -0.0000 0.9180
vn 0.9565 -0.0000 0.2917
vn 0.4060 -0.0000 0.9139
vn 0.5327 -0.0000 0.8463
vn -0.0868 -0.0000 0.9962
vn -0.4253 -0.0000 0.9050
vn -0.2023 -0.0000 0.9793
vn -0.5196 -0.0000 0.8544
vn 0.2655 -0.0000 0.9641
vn -0.3405 -0.0000 0.9402
vn -0.0933 -0.0000 0.9956
vn -0.0301 -0.0000 0.9995
vn -0.2369 -0.0000 0.9715
vn 0.6097 -0.0000 0.7926
vn 0.6755 -0.0000 0.7374
vn -0.0000 -0.0000 -1.0000
vn -0.0550 -0.0000 0.9985
vn -0.2261 -0.0000 0.9741
vn -0.3646 -0.0000 0.9312
vn 0.4645 -0.0000 0.8856
vn -0.3033 -0.0000 0.9529
vn 0.5289 -0.0000 0.8487
vn 0.9999 -0.0000 0.0103
vn -0.9996 -0.0000 0.0297
vn 0.4581 -0.0000 0.8889
vn -0.4723 -0.0000 0.8814
vn 0.0766 -0.0000 0.9971
vn -0.5541 -0.0000 0.8324
vn -0.3568 -0.0000 0.9342
vn -0.4827 -0.0000 0.8758
vn -0.3288 -0.0000 0.9444
vn 0.9973 -0.0000 0.0738
vn -0.3377 -0.0000 0.9413
vn -0.2972 -0.0000 0.9548
vn 0.0628 -0.0000 0.9980
vn 0.1038 -0.0000 0.9946
vn -0.1337 -0.0000 0.9910
vn -0.4299 -0.0000 0.9029
vn 0.4059 -0.0000 0.9139
vt 0.000000 0.000000
vt 0.812500 1.000000
vt 0.671875 1.000000
vt 0.406250 1.000000
vt 0.390625 1.000000
vt 0.656250 1.000000
vt 0.687500 1.000000
vt 0.937500 1.000000
vt 0.890625 1.000000
vt 0.421875 1.000000
vt 0.437500 1.000000
vt 0.593750 1.000000
vt 0.578125 1.000000
vt 0.109375 1.000000
vt 0.093750 1.000000
vt 0.125000 1.000000
vt 0.343750 1.000000
vt 0.328125 1.000000
vt 0.609375 1.000000
vt 0.625000 1.000000
vt 0.015625 1.000000
vt 0.000000 1.000000
vt 0.000000 0.968750
vt 0.000000 0.828125
vt 0.359375 1.000000
vt 0.265625 1.000000
vt 0.250000 1.000000
vt 0.859375 1.000000
vt 0.234375 1.000000
vt 0.218750 1.000000
vt 0.765625 1.000000
vt 0.750000 1.000000
vt 0.203125 1.000000
vt 0.984375 1.000000
vt 0.968750 1.000000
vt 0.140625 1.000000
vt 0.734375 1.000000
vt 0.703125 1.000000
vt 0.031250 1.000000
vt 1.000000 0.000000
vt 0.640625 1.000000
vt 0.953125 1.000000
vt 0.281250 1.000000
vt 0.312500 1.000000
vt 1.000000 1.000000
vt 0.546875 1.000000
vt 0.781250 1.000000
vt 0.453125 1.000000
vt 0.156250 1.000000
vt 0.796875 1.000000
s 0
usemtl mountain
f 1/1/1 10/2/1 42/3/1
f 19/4/2 81/5/2 31/5/2
f 42/3/3 68/6/3 18/6/3
f 11/7/4 92/3/4 42/3/4
f 13/8/5 82/9/5 32/9/5
f 43/10/6 69/4/6 19/4/6
f 12/11/7 93/10/7 43/10/7
f 21/12/8 83/13/8 33/13/8
f 44/14/9 70/15/9 20/15/9
f 7/16/10 94/14/10 44/14/10
f 22/17/11 84/18/11 34/18/11
f 45/19/12 71/12/12 21/12/12
f 8/20/13 95/19/13 45/19/13
f 26/21/14 53/22/14 3/22/14
f 24/23/15 85/24/15 35/24/15
f 46/25/16 72/17/16 22/17/16
f 31/5/17 96/25/17 46/25/17
f 27/26/18 55/27/18 5/27/18
f 47/28/19 60/2/19 10/2/19
f 48/29/20 73/30/20 23/30/20
f 32/9/21 97/28/21 47/28/21
f 28/31/22 56/32/22 6/32/22
f 23/30/23 86/33/23 36/33/23
f 50/34/24 75/35/24 25/35/24
f 5/27/25 98/29/25 48/29/25
f 29/36/26 57/16/26 7/16/26
f 49/37/27 87/38/27 37/38/27
f 14/39/28 76/21/28 26/21/28
f 1/1/29 52/40/29 2/40/29
f 30/41/30 58/20/30 8/20/30
f 25/35/31 89/42/31 39/42/31
f 15/43/32 77/26/32 27/26/32
f 6/32/33 99/37/33 49/37/33
f 34/18/34 59/44/34 9/44/34
f 20/15/35 64/39/35 14/39/35
f 35/24/36 51/1/36 1/1/36
f 2/40/37 54/45/37 4/45/37
f 37/38/38 61/7/38 11/7/38
f 33/13/39 90/46/39 40/46/39
f 16/47/40 78/31/40 28/31/40
f 40/46/41 88/48/41 38/48/41
f 38/48/42 62/11/42 12/11/42
f 9/44/43 65/43/43 15/43/43
f 17/49/44 79/36/44 29/36/44
f 3/22/45 74/23/45 24/23/45
f 39/42/46 63/8/46 13/8/46
f 10/2/47 91/50/47 41/50/47
f 18/6/48 80/41/48 30/41/48
f 4/45/49 100/34/49 50/34/49
f 41/50/50 66/47/50 16/47/50
f 36/33/51 67/49/51 17/49/51
f 12/11/1 43/10/1 19/4/1
f 19/4/1 31/5/1 46/25/1
f 12/11/1 19/4/1 46/25/1
f 40/46/1 38/48/1 12/11/1
f 40/46/1 12/11/1 46/25/1
f 40/46/1 46/25/1 22/17/1
f 33/13/1 40/46/1 22/17/1
f 33/13/1 22/17/1 34/18/1
f 21/12/1 33/13/1 34/18/1
f 9/44/1 15/43/1 27/26/1
f 45/19/1 21/12/1 34/18/1
f 9/44/1 27/26/1 5/27/1
f 9/44/1 5/27/1 48/29/1
f 9/44/1 48/29/1 23/30/1
f 34/18/1 9/44/1 23/30/1
f 36/33/1 17/49/1 29/36/1
f 36/33/1 29/36/1 7/16/1
f 7/16/1 44/14/1 20/15/1
f 20/15/1 14/39/1 26/21/1
f 26/21/1 3/22/1 24/23/1
f 24/23/1 35/24/1 1/1/1
f 1/1/1 2/40/1 4/45/1
f 1/1/1 4/45/1 50/34/1
f 26/21/1 24/23/1 1/1/1
f 7/16/1 20/15/1 26/21/1
f 36/33/1 7/16/1 26/21/1
f 1/1/1 50/34/1 25/35/1
f 1/1/1 25/35/1 39/42/1
f 36/33/1 26/21/1 1/1/1
f 23/30/1 36/33/1 1/1/1
f 1/1/1 39/42/1 13/8/1
f 32/9/1 47/28/1 10/2/1
f 1/1/1 13/8/1 32/9/1
f 34/18/1 23/30/1 1/1/1
f 45/19/1 34/18/1 1/1/1
f 1/1/1 32/9/1 10/2/1
f 10/2/1 41/50/1 16/47/1
f 16/47/1 28/31/1 6/32/1
f 6/32/1 49/37/1 37/38/1
f 16/47/1 6/32/1 37/38/1
f 8/20/1 45/19/1 1/1/1
f 30/41/1 8/20/1 1/1/1
f 10/2/1 16/47/1 37/38/1
f 10/2/1 37/38/1 11/7/1
f 18/6/1 30/41/1 1/1/1
f 10/2/1 11/7/1 42/3/1
f 42/3/1 18/6/1 1/1/1
f 19/4/2 69/4/2 81/5/2
f 42/3/3 92/3/3 68/6/3
f 11/7/4 61/7/4 92/3/4
f 13/8/5 63/8/5 82/9/5
f 43/10/6 93/10/6 69/4/6
f 12/11/7 62/11/7 93/10/7
f 21/12/8 71/12/8 83/13/8
f 44/14/9 94/14/9 70/15/9
f 7/16/10 57/16/10 94/14/10
f 22/17/11 72/17/11 84/18/11
f 45/19/12 95/19/12 71/12/12
f 8/20/13 58/20/13 95/19/13
f 26/21/14 76/21/14 53/22/14
f 24/23/15 74/23/15 85/24/15
f 46/25/52 96/25/52 72/17/52
f 31/5/17 81/5/17 96/25/17
f 27/26/18 77/26/18 55/27/18
f 47/28/19 97/28/19 60/2/19
f 48/29/20 98/29/20 73/30/20
f 32/9/21 82/9/21 97/28/21
f 28/31/22 78/31/22 56/32/22
f 23/30/23 73/30/23 86/33/23
f 50/34/24 100/34/24 75/35/24
f 5/27/25 55/27/25 98/29/25
f 29/36/26 79/36/26 57/16/26
f 49/37/27 99/37/27 87/38/27
f 14/39/28 64/39/28 76/21/28
f 1/1/29 51/1/29 52/40/29
f 30/41/30 80/41/30 58/20/30
f 25/35/31 75/35/31 89/42/31
f 15/43/32 65/43/32 77/26/32
f 6/32/33 56/32/33 99/37/33
f 34/18/34 84/18/34 59/44/34
f 20/15/35 70/15/35 64/39/35
f 35/24/36 85/24/36 51/1/36
f 2/40/37 52/40/37 54/45/37
f 37/38/38 87/38/38 61/7/38
f 33/13/39 83/13/39 90/46/39
f 16/47/40 66/47/40 78/31/40
f 40/46/41 90/46/41 88/48/41
f 38/48/42 88/48/42 62/11/42
f 9/44/43 59/44/43 65/43/43
f 17/49/44 67/49/44 79/36/44
f 3/22/45 53/22/45 74/23/45
f 39/42/46 89/42/46 63/8/46
f 10/2/47 60/2/47 91/50/47
f 18/6/48 68/6/48 80/41/48
f 4/45/49 54/45/49 100/34/49
f 41/50/50 91/50/50 66/47/50
f 36/33/51 86/33/51 67/49/51
