# Blender 3.6.4
# www.blender.org
mtllib triforce_right.mtl
o Right
v 0.000000 -1.431504 -0.150000
v 0.000000 -1.431504 0.150000
v 0.866025 0.068496 -0.150000
v 0.866025 0.068496 0.150000
v 1.732051 -1.431504 -0.150000
v 1.732051 -1.431504 0.150000
vn -0.8660 0.5000 -0.0000
vn 0.8660 0.5000 -0.0000
vn -0.0000 -0.0000 1.0000
vn -0.0000 -1.0000 -0.0000
vn -0.0000 -0.0000 -1.0000
vt 1.000000 1.000000
vt 0.666667 0.500000
vt 1.000000 0.500000
vt 0.333333 1.000000
vt 0.333333 0.500000
vt 0.457846 0.130000
vt 0.250000 0.490000
vt 0.042154 0.130000
vt -0.000000 0.500000
vt 0.750000 0.490000
vt 0.957846 0.130000
vt 0.542154 0.130000
vt 0.666667 1.000000
vt -0.000000 1.000000
s 0
usemtl Triforce
f 2/1/1 3/2/1 1/3/1
f 3/2/2 6/4/2 5/5/2
f 4/6/3 2/7/3 6/8/3
f 6/4/4 1/9/4 5/5/4
f 1/10/5 3/11/5 5/12/5
f 2/1/1 4/13/1 3/2/1
f 3/2/2 4/13/2 6/4/2
f 6/4/4 2/14/4 1/9/4
