# Blender 3.6.4
# www.blender.org
mtllib water.mtl
o Water
v -62.952065 -0.915111 -66.334564
v 60.834721 -0.915111 -66.334564
v -62.952065 -2.592175 7.483371
v 60.834721 -2.592175 7.483371
v -62.952065 -2.815869 7.478289
v -62.952065 -1.138805 -66.339645
v 60.834721 -1.138805 -66.339645
v 60.834721 -2.815869 7.478289
vn -0.0000 0.9997 0.0227
vn -0.0000 -0.9997 -0.0227
vn 1.0000 -0.0000 -0.0000
vn -1.0000 -0.0000 -0.0000
vn -0.0000 -0.0227 0.9997
vn -0.0000 0.0227 -0.9997
vt 0.000000 1.000000
vt 1.000000 0.000000
vt 0.000000 0.000000
vt 1.000000 1.000000
s 0
usemtl water
f 3/1/1 2/2/1 1/3/1
f 7/2/2 5/1/2 6/3/2
f 4/4/3 7/2/3 2/2/3
f 1/3/4 5/1/4 3/1/4
f 3/1/5 8/4/5 4/4/5
f 2/2/6 6/3/6 1/3/6
f 3/1/1 4/4/1 2/2/1
f 7/2/2 8/4/2 5/1/2
f 4/4/3 8/4/3 7/2/3
f 1/3/4 6/3/4 5/1/4
f 3/1/5 5/1/5 8/4/5
f 2/2/6 7/2/6 6/3/6
